<?xml version="1.0" encoding="utf-8"?>
<!-- Generator: Adobe Illustrator 16.0.0, SVG Export Plug-In . SVG Version: 6.00 Build 0)  -->
<!DOCTYPE svg PUBLIC "-//W3C//DTD SVG 1.1//EN" "http://www.w3.org/Graphics/SVG/1.1/DTD/svg11.dtd">
<svg version="1.1" id="Layer_1" xmlns="http://www.w3.org/2000/svg" xmlns:xlink="http://www.w3.org/1999/xlink" x="0px" y="0px"
	 width="32px" height="32px" viewBox="0 0 32 32" enable-background="new 0 0 32 32" xml:space="preserve">
<g>
	<path fill="#FFFFFF" d="M18.885,28.969c-0.871,0-1.689-0.339-2.305-0.953L6.994,18.43C6.359,17.797,6.018,16.914,6.053,16
		c-0.035-0.913,0.306-1.796,0.941-2.431l9.586-9.585c0.613-0.614,1.434-0.952,2.305-0.952c0.872,0,1.69,0.338,2.305,0.951l0.802,0.8
		c0.612,0.613,0.95,1.431,0.95,2.304s-0.338,1.691-0.95,2.304L15.382,16l6.608,6.607c1.271,1.271,1.27,3.338,0,4.605l-0.801,0.803
		C20.575,28.63,19.757,28.969,18.885,28.969z"/>
	<path d="M18.885,4.032c0.579,0,1.158,0.22,1.598,0.659l0.802,0.8c0.878,0.877,0.878,2.316,0,3.194L13.968,16l7.315,7.314
		c0.878,0.879,0.878,2.314,0,3.191l-0.801,0.803c-0.439,0.438-1.02,0.658-1.599,0.658s-1.157-0.22-1.598-0.658L7.7,17.723
		C7.229,17.252,7.02,16.62,7.054,16c-0.034-0.62,0.175-1.252,0.647-1.724l9.586-9.585C17.727,4.252,18.307,4.032,18.885,4.032
		 M18.885,2.032c-1.139,0-2.208,0.442-3.011,1.244l-9.586,9.585C5.464,13.685,5.018,14.823,5.053,16
		c-0.035,1.18,0.412,2.316,1.236,3.139l9.584,9.584c0.803,0.803,1.872,1.246,3.012,1.246c1.141,0,2.209-0.443,3.012-1.246
		l0.803-0.803c0.801-0.8,1.242-1.869,1.242-3.009s-0.44-2.207-1.242-3.011L16.796,16l5.901-5.901
		c0.803-0.802,1.244-1.872,1.244-3.011c0-1.14-0.442-2.21-1.246-3.012l-0.799-0.8C21.093,2.474,20.023,2.032,18.885,2.032
		L18.885,2.032z"/>
</g>
</svg>
