<?xml version="1.0" encoding="utf-8"?>
<!-- Generator: Adobe Illustrator 16.0.0, SVG Export Plug-In . SVG Version: 6.00 Build 0)  -->
<!DOCTYPE svg PUBLIC "-//W3C//DTD SVG 1.1//EN" "http://www.w3.org/Graphics/SVG/1.1/DTD/svg11.dtd">
<svg version="1.1" id="Layer_1" xmlns="http://www.w3.org/2000/svg" xmlns:xlink="http://www.w3.org/1999/xlink" x="0px" y="0px"
	 width="32px" height="32px" viewBox="0 0 32 32" enable-background="new 0 0 32 32" xml:space="preserve">
<g>
	<path fill="#FFFFFF" d="M16.359,25.445c-0.872,0-1.687-0.335-2.295-0.943l-9.585-9.585c-0.614-0.614-0.952-1.433-0.952-2.305
		c0-0.873,0.338-1.691,0.953-2.305l0.799-0.8c0.613-0.614,1.431-0.952,2.304-0.952c0.873,0,1.691,0.337,2.305,0.951l6.608,6.609
		l6.609-6.608c0.612-0.613,1.431-0.951,2.303-0.951s1.69,0.338,2.303,0.952l0.802,0.8c0.615,0.614,0.953,1.432,0.953,2.305
		c0,0.872-0.338,1.691-0.952,2.305l-9.59,9.585c-0.605,0.607-1.421,0.943-2.296,0.943C16.581,25.445,16.403,25.445,16.359,25.445z"
		/>
	<path d="M25.406,9.556c0.578,0,1.157,0.219,1.596,0.658l0.803,0.801c0.879,0.878,0.879,2.316,0,3.195l-9.59,9.585
		c-0.437,0.438-1.014,0.65-1.589,0.65c-0.045,0-0.089-0.001-0.134-0.004c-0.044,0.003-0.089,0.004-0.133,0.004
		c-0.574,0-1.15-0.212-1.589-0.65L5.185,14.21c-0.879-0.879-0.879-2.317,0-3.195l0.8-0.801c0.438-0.439,1.018-0.658,1.597-0.658
		s1.159,0.219,1.598,0.658l7.315,7.315l7.316-7.315C24.249,9.775,24.828,9.556,25.406,9.556 M25.406,7.556
		c-1.14,0-2.209,0.442-3.011,1.245l-5.901,5.901L10.593,8.8C9.791,7.997,8.721,7.556,7.582,7.556c-1.14,0-2.209,0.442-3.012,1.245
		l-0.8,0.802c-0.801,0.8-1.244,1.87-1.244,3.01c0,1.139,0.442,2.209,1.245,3.012l9.585,9.585c0.798,0.798,1.864,1.236,3.003,1.236
		c0.044,0,0.089-0.001,0.133-0.002c0.045,0.001,0.089,0.002,0.134,0.002c1.143,0,2.21-0.44,3.006-1.239l9.587-9.582
		c0.803-0.803,1.245-1.873,1.245-3.012c0-1.14-0.442-2.21-1.246-3.012l-0.803-0.802C27.615,7.998,26.546,7.556,25.406,7.556
		L25.406,7.556z"/>
</g>
</svg>
