<?xml version="1.0" encoding="utf-8"?>
<!-- Generator: Adobe Illustrator 16.0.0, SVG Export Plug-In . SVG Version: 6.00 Build 0)  -->
<!DOCTYPE svg PUBLIC "-//W3C//DTD SVG 1.1//EN" "http://www.w3.org/Graphics/SVG/1.1/DTD/svg11.dtd">
<svg version="1.1" id="Layer_1" xmlns="http://www.w3.org/2000/svg" xmlns:xlink="http://www.w3.org/1999/xlink" x="0px" y="0px"
	 width="32px" height="32px" viewBox="0 0 32 32" enable-background="new 0 0 32 32" xml:space="preserve">
<g>
	<path fill="#FFFFFF" d="M25.409,22.445c-0.873,0-1.691-0.338-2.304-0.951l-6.606-6.608l-6.608,6.608
		c-0.613,0.613-1.432,0.951-2.304,0.951c-0.873,0-1.691-0.338-2.304-0.951l-0.8-0.801c-1.271-1.271-1.271-3.339,0-4.609l9.587-9.585
		c0.607-0.608,1.423-0.944,2.297-0.944c0.044,0,0.221,0,0.265,0c0.871,0,1.687,0.335,2.296,0.943l9.586,9.585
		c0.614,0.614,0.952,1.433,0.952,2.305s-0.338,1.69-0.952,2.305l-0.801,0.801C27.101,22.107,26.282,22.445,25.409,22.445z"/>
	<path d="M16.632,6.555c0.573,0,1.15,0.212,1.589,0.651l9.586,9.585c0.879,0.879,0.879,2.316,0,3.195l-0.801,0.801
		c-0.438,0.439-1.018,0.658-1.597,0.658s-1.158-0.219-1.597-0.658l-7.313-7.315l-7.315,7.315c-0.439,0.439-1.018,0.658-1.597,0.658
		s-1.158-0.219-1.597-0.658l-0.8-0.801c-0.879-0.879-0.879-2.316,0-3.195l9.587-9.585c0.438-0.438,1.014-0.651,1.59-0.651
		c0.044,0,0.089,0.001,0.133,0.004C16.544,6.557,16.588,6.555,16.632,6.555 M16.632,4.555c-0.044,0-0.088,0.001-0.132,0.002
		c-0.044-0.001-0.089-0.002-0.133-0.002c-1.142,0-2.209,0.44-3.005,1.238l-9.585,9.583c-0.803,0.803-1.245,1.873-1.245,3.012
		s0.442,2.209,1.245,3.012l0.8,0.801c0.802,0.803,1.871,1.244,3.011,1.244c1.14,0,2.209-0.441,3.011-1.244l5.901-5.9l5.899,5.9
		c0.801,0.803,1.871,1.244,3.011,1.244s2.21-0.442,3.012-1.245l0.8-0.8c0.803-0.803,1.245-1.872,1.245-3.012
		s-0.442-2.209-1.245-3.012l-9.586-9.585C18.836,4.994,17.771,4.555,16.632,4.555L16.632,4.555z"/>
</g>
</svg>
