<?xml version="1.0" encoding="utf-8"?>
<!-- Generator: Adobe Illustrator 16.0.0, SVG Export Plug-In . SVG Version: 6.00 Build 0)  -->
<!DOCTYPE svg PUBLIC "-//W3C//DTD SVG 1.1//EN" "http://www.w3.org/Graphics/SVG/1.1/DTD/svg11.dtd">
<svg version="1.1" id="Layer_1" xmlns="http://www.w3.org/2000/svg" xmlns:xlink="http://www.w3.org/1999/xlink" x="0px" y="0px"
	 width="32px" height="32px" viewBox="0 0 32 32" enable-background="new 0 0 32 32" xml:space="preserve">
<g>
	<path fill="#FFFFFF" d="M13.106,28.968c-0.873,0-1.691-0.338-2.305-0.952l-0.8-0.803c-1.269-1.268-1.27-3.334,0-4.605L16.609,16
		l-6.606-6.609C9.389,8.778,9.052,7.959,9.052,7.087c0-0.873,0.338-1.691,0.951-2.305l0.8-0.799
		c0.614-0.614,1.432-0.952,2.305-0.952c0.873,0,1.691,0.338,2.305,0.952l9.586,9.586c0.636,0.635,0.977,1.518,0.94,2.428
		c0.036,0.91-0.305,1.794-0.939,2.432l-9.588,9.587C14.798,28.63,13.979,28.968,13.106,28.968z"/>
	<path d="M13.107,4.031c0.58,0,1.159,0.22,1.598,0.659l9.586,9.586c0.473,0.472,0.682,1.104,0.646,1.721
		c0.035,0.621-0.176,1.252-0.647,1.726l-9.586,9.586c-0.439,0.439-1.018,0.659-1.598,0.659c-0.579,0-1.158-0.22-1.598-0.659
		l-0.8-0.802c-0.878-0.877-0.878-2.313,0-3.192L18.023,16L10.71,8.684c-0.878-0.878-0.878-2.317,0-3.194l0.8-0.8
		C11.949,4.251,12.528,4.031,13.107,4.031 M13.107,2.031c-1.139,0-2.209,0.442-3.012,1.244l-0.8,0.8
		C8.494,4.877,8.052,5.947,8.052,7.087c0,1.14,0.441,2.209,1.244,3.011L15.195,16l-5.9,5.9c-0.803,0.804-1.244,1.872-1.244,3.011
		c0,1.14,0.442,2.209,1.245,3.011l0.797,0.799c0.804,0.805,1.874,1.247,3.014,1.247c1.141,0,2.21-0.442,3.013-1.246l9.585-9.585
		c0.825-0.828,1.271-1.966,1.235-3.139c0.036-1.176-0.411-2.313-1.235-3.137l-9.585-9.585C15.317,2.474,14.248,2.031,13.107,2.031
		L13.107,2.031z"/>
</g>
</svg>
