<?xml version="1.0" encoding="utf-8"?>
<!-- Generator: Adobe Illustrator 16.0.0, SVG Export Plug-In . SVG Version: 6.00 Build 0)  -->
<!DOCTYPE svg PUBLIC "-//W3C//DTD SVG 1.1//EN" "http://www.w3.org/Graphics/SVG/1.1/DTD/svg11.dtd">
<svg version="1.1" id="Layer_1" xmlns="http://www.w3.org/2000/svg" xmlns:xlink="http://www.w3.org/1999/xlink" x="0px" y="0px"
	 width="32px" height="32px" viewBox="0 0 32 32" enable-background="new 0 0 32 32" xml:space="preserve">
<circle fill="#00C853" cx="16" cy="16" r="16"/>
<g>
	<path fill="#FFFFFF" d="M3.5,19.258c0-0.222,0.201-0.417,0.455-0.417c0.248,0,0.456,0.197,0.456,0.417v3.872
		c0,0.222-0.208,0.415-0.456,0.415c-0.254,0-0.455-0.195-0.455-0.415V19.258z"/>
	<path fill="#FFFFFF" d="M5.503,19.76c-0.247-0.053-0.423-0.256-0.423-0.488c0-0.271,0.241-0.5,0.547-0.5
		c0.287,0,0.541,0.207,0.541,0.525c0,0.391-0.287,1.333-0.612,1.333c-0.104,0-0.298-0.038-0.267-0.292
		C5.308,20.123,5.451,20.044,5.503,19.76z"/>
	<path fill="#FFFFFF" d="M10.325,21.327c0-0.229-0.137-0.411-0.377-0.411c-0.168,0-0.344,0.086-0.521,0.229
		c0.007,0.061,0.015,0.111,0.015,0.17v1.815c0,0.222-0.15,0.396-0.449,0.396c-0.3,0-0.449-0.174-0.449-0.396v-1.687
		c0-0.299-0.052-0.527-0.339-0.527c-0.162,0-0.358,0.073-0.554,0.17c0.006,0.02,0.006,0.053,0.006,0.071v1.973
		c0,0.222-0.149,0.396-0.448,0.396S6.76,23.352,6.76,23.13v-1.973c0-0.216-0.025-0.234-0.052-0.271
		c-0.092-0.125-0.111-0.175-0.111-0.247c0-0.233,0.202-0.385,0.423-0.385c0.15,0,0.261,0.071,0.344,0.182
		c0.293-0.182,0.6-0.285,0.879-0.285c0.273,0,0.521,0.1,0.754,0.285c0.352-0.188,0.631-0.285,0.983-0.285
		c0.768,0,1.243,0.47,1.243,1.164v1.815c0,0.224-0.15,0.396-0.448,0.396c-0.3,0-0.449-0.174-0.449-0.396L10.325,21.327
		L10.325,21.327z"/>
	<path fill="#FFFFFF" d="M15.703,20.299v-1.113c0-0.223,0.164-0.396,0.449-0.396c0.288,0,0.45,0.183,0.45,0.396v3.465
		c0,0.098,0.039,0.144,0.125,0.228c0.063,0.065,0.09,0.131,0.09,0.224c0,0.26-0.221,0.396-0.42,0.396
		c-0.162,0-0.292-0.104-0.391-0.249c-0.318,0.176-0.586,0.288-0.917,0.288c-0.755,0-1.19-0.516-1.19-1.277v-0.732
		c0-0.775,0.306-1.351,1.236-1.351C15.332,20.175,15.469,20.201,15.703,20.299z M15.703,21.002
		c-0.202-0.059-0.365-0.086-0.475-0.086c-0.318,0-0.436,0.201-0.436,0.605v0.734c0,0.339,0.144,0.521,0.424,0.521
		c0.136,0,0.299-0.045,0.5-0.135c-0.006-0.048-0.012-0.086-0.012-0.123L15.703,21.002L15.703,21.002L15.703,21.002z"/>
	<path fill="#FFFFFF" d="M17.333,22.323v-0.97c0-0.686,0.487-1.211,1.412-1.211c0.924,0,1.413,0.525,1.413,1.211v0.97
		c0,0.684-0.488,1.211-1.413,1.211S17.333,23.007,17.333,22.323z M19.257,22.323v-0.976c0-0.271-0.175-0.438-0.514-0.438
		s-0.515,0.168-0.515,0.438v0.976c0,0.271,0.176,0.44,0.515,0.44C19.082,22.766,19.257,22.595,19.257,22.323z"/>
	<path fill="#FFFFFF" d="M21.738,23.13c0,0.222-0.15,0.396-0.448,0.396c-0.3,0-0.448-0.174-0.448-0.396v-1.973
		c0-0.216-0.025-0.234-0.053-0.271c-0.092-0.125-0.111-0.17-0.111-0.256c0-0.213,0.188-0.376,0.438-0.376
		c0.136,0,0.253,0.071,0.345,0.188c0.293-0.192,0.6-0.278,0.857-0.278c0.818,0,1.229,0.508,1.229,1.269v1.699
		c0,0.225-0.163,0.396-0.448,0.396c-0.289,0-0.449-0.174-0.449-0.396v-1.699c0-0.322-0.162-0.522-0.424-0.522
		c-0.138,0-0.299,0.044-0.5,0.136c0.006,0.044,0.015,0.084,0.015,0.123v1.964h-0.003V23.13z"/>
	<path fill="#FFFFFF" d="M25.119,22.205v0.216c0,0.222,0.17,0.364,0.52,0.364c0.209,0,0.379-0.053,0.586-0.145
		c0.026-0.015,0.086-0.039,0.197-0.039c0.313,0,0.401,0.209,0.401,0.356c0,0.454-0.833,0.574-1.249,0.574
		c-0.857,0-1.354-0.495-1.354-1.142v-1.086c0-0.658,0.48-1.158,1.387-1.158c0.852,0,1.274,0.446,1.274,1.104
		c0,0.626-0.386,0.989-1.264,0.989C25.451,22.244,25.309,22.23,25.119,22.205z M25.602,20.848c-0.313,0-0.48,0.159-0.48,0.422v0.278
		c0.207,0.021,0.402,0.024,0.469,0.024c0.246,0,0.402-0.083,0.402-0.363C25.99,20.949,25.854,20.848,25.602,20.848z"/>
	<path fill="#FFFFFF" d="M27.96,23.546c-0.308,0-0.548-0.231-0.548-0.507s0.24-0.501,0.548-0.501c0.293,0,0.54,0.228,0.54,0.501
		S28.253,23.546,27.96,23.546z M27.491,19.266c0-0.223,0.2-0.425,0.454-0.425c0.246,0,0.457,0.202,0.457,0.425l-0.065,2.74
		c-0.007,0.195-0.188,0.363-0.392,0.363c-0.221,0-0.389-0.163-0.389-0.363L27.491,19.266z"/>
</g>
<g>
	<path fill="#FFFFFF" d="M7.5,13.902v-3.051c0-2.189,1.125-4.039,4.007-4.039c2.883,0,4.007,1.85,4.007,4.039v3.051
		c0,2.251-1.34,4.055-4.007,4.055C8.841,17.957,7.5,16.153,7.5,13.902z M9.658,10.851v3.051c0,1.234,0.585,2.098,1.849,2.098
		c1.264,0,1.85-0.864,1.85-2.098v-3.051c0-1.249-0.493-2.081-1.85-2.081S9.658,9.602,9.658,10.851z"/>
	<path fill="#FFFFFF" d="M20.955,11.929l3.376,4.471c0.153,0.2,0.169,0.372,0.169,0.524c0,0.447-0.385,1.033-1.048,1.033
		c-0.354,0-0.662-0.139-0.894-0.447l-2.99-4.007l-0.276,0.308v3.146c0,0.537-0.493,0.999-1.079,0.999
		c-0.602,0-1.076-0.462-1.076-0.999V7.798c0-0.524,0.477-0.986,1.076-0.986c0.586,0,1.079,0.463,1.079,0.986v2.929l3.054-3.468
		c0.184-0.232,0.538-0.447,0.877-0.447c0.461,0,1.063,0.447,1.063,0.986c0,0.231-0.017,0.385-0.263,0.664L20.955,11.929z"/>
</g>
</svg>
